:FULLY-SPECIFIED
:FORCE-ALL-JOINTS-BE-3DOF
:DEGREES
469
root 10.6702 17.1329 29.6583 5.84091 2.42123 2.77286
lfemur -3.91256 1.70144 -27.2942
ltibia 11.3659 -0 0
lfoot -11.167 5.89638 0.0550354
ltoes 1.75936 -0 0
rfemur -24.6348 9.96256 13.6053
rtibia 28.7169 -0 0
rfoot -12.4554 -2.72302 1.19709
rtoes -16.2449 0 0
lowerback -6.11342 -2.35054 -3.65626
upperback -1.28024 -2.92096 1.29115
thorax 2.47865 -1.49339 3.1327
lowerneck -20.5981 -3.57305 -10.9229
upperneck 24.2069 -4.51254 10.8865
head 11.9137 -1.67153 5.23774
lclavicle 8.25067e-15 -9.15064e-15 -2.54374e-31
lhumerus -24.1514 -16.6449 87.9053
lradius 29.8006 -0 0
lwrist 3.92899 0 0
lhand -13.663 -25.2483 0.0548891
lfingers 7.12502 -0 0
lthumb 12.4518 4.32212 0.0443031
rclavicle 8.25067e-15 -9.15064e-15 -2.54374e-31
rhumerus -47.6842 8.60028 -87.1139
rradius 35.0354 -0 0
rwrist -17.6104 0 0
rhand -29.6565 -25.3702 -0.0813891
rfingers 7.12502 -0 0
rthumb -2.98561 -55.3166 -0.0790653
470
root 10.6788 17.137 29.7846 5.79218 2.50574 2.87828
lfemur -3.04963 1.7214 -27.4078
ltibia 10.7976 -0 0
lfoot -11.3563 5.85573 0.0535577
ltoes 1.67411 -0 0
rfemur -25.5148 10.1305 13.3335
rtibia 28.662 -0 0
rfoot -13.0876 -2.98863 1.16467
rtoes -16.1906 0 0
lowerback -6.0728 -2.47177 -3.72401
upperback -1.24804 -3.07962 1.29171
thorax 2.50275 -1.57386 3.1579
lowerneck -20.6386 -3.49883 -10.8373
upperneck 24.2542 -4.4177 10.8279
head 11.9217 -1.62748 5.21732
lclavicle 8.08786e-15 -9.36898e-15 -2.47549e-31
lhumerus -23.5784 -16.9552 87.8079
lradius 30.0476 -0 0
lwrist 4.1368 0 0
lhand -13.8003 -25.3042 0.0534158
lfingers 7.12502 -0 0
lthumb 12.3195 4.27531 0.043114
rclavicle 8.08786e-15 -9.36898e-15 -2.47549e-31
rhumerus -47.8509 8.60002 -87.059
rradius 35.1414 -0 0
rwrist -17.7144 0 0
rhand -29.7395 -25.2331 -0.0792043
rfingers 7.12502 -0 0
rthumb -3.06576 -55.1788 -0.0769429
471
root 10.6873 17.1411 29.911 5.74361 2.59035 2.98363
lfemur -2.18673 1.74306 -27.521
ltibia 10.2293 -0 0
lfoot -11.5455 5.81509 0.0519458
ltoes 1.58886 -0 0
rfemur -26.3961 10.2942 13.059
rtibia 28.6071 -0 0
rfoot -13.7198 -3.25388 1.12931
rtoes -16.1363 0 0
lowerback -6.03203 -2.59296 -3.79185
upperback -1.21584 -3.23828 1.29218
thorax 2.52681 -1.65435 3.18308
lowerneck -20.679 -3.42455 -10.7517
upperneck 24.3013 -4.32282 10.7694
head 11.9298 -1.58342 5.19691
lclavicle 7.92505e-15 -9.58732e-15 -2.40104e-31
lhumerus -23.004 -17.2646 87.707
lradius 30.2947 -0 0
lwrist 4.3446 0 0
lhand -13.9376 -25.36 0.0518086
lfingers 7.12502 -0 0
lthumb 12.1872 4.2285 0.0418169
rclavicle 7.92505e-15 -9.58732e-15 -2.40104e-31
rhumerus -48.0177 8.59991 -87.0041
rradius 35.2473 -0 0
rwrist -17.8185 0 0
rhand -29.8225 -25.096 -0.076821
rfingers 7.12502 -0 0
rthumb -3.14591 -55.0409 -0.0746277
472
root 10.6959 17.1452 30.0373 5.6952 2.67505 3.08892
lfemur -1.32387 1.76643 -27.634
ltibia 9.66104 -0 0
lfoot -11.7348 5.77445 0.0501996
ltoes 1.50361 -0 0
rfemur -27.2786 10.4538 12.7818
rtibia 28.5521 -0 0
rfoot -14.3517 -3.51871 1.09104
rtoes -16.082 0 0
lowerback -5.99111 -2.71409 -3.85979
upperback -1.18363 -3.39694 1.29257
thorax 2.55083 -1.73484 3.20821
lowerneck -20.7193 -3.35021 -10.6661
upperneck 24.3484 -4.22789 10.711
head 11.9378 -1.53937 5.1765
lclavicle 7.76224e-15 -9.80565e-15 -2.32039e-31
lhumerus -22.428 -17.5729 87.6027
lradius 30.5418 -0 0
lwrist 4.55241 0 0
lhand -14.0749 -25.4159 0.0500676
lfingers 7.12502 -0 0
lthumb 12.0549 4.1817 0.0404116
rclavicle 7.76224e-15 -9.80565e-15 -2.32039e-31
rhumerus -48.1844 8.59997 -86.9491
rradius 35.3533 -0 0
rwrist -17.9226 0 0
rhand -29.9055 -24.959 -0.0742392
rfingers 7.12502 -0 0
rthumb -3.22606 -54.903 -0.0721196
473
root 10.7045 17.1493 30.1637 5.64693 2.75983 3.19415
lfemur -0.461041 1.7915 -27.7465
ltibia 9.09275 -0 0
lfoot -11.924 5.73381 0.0483192
ltoes 1.41837 -0 0
rfemur -28.1623 10.6092 12.502
rtibia 28.4972 -0 0
rfoot -14.9834 -3.7831 1.04984
rtoes -16.0276 0 0
lowerback -5.95004 -2.83518 -3.92782
upperback -1.15142 -3.5556 1.29286
thorax 2.57482 -1.81535 3.23332
lowerneck -20.7594 -3.27581 -10.5807
upperneck 24.3953 -4.13291 10.6527
head 11.9458 -1.49531 5.1561
lclavicle 7.59943e-15 -1.0024e-14 -2.23353e-31
lhumerus -21.8504 -17.8803 87.495
lradius 30.7889 -0 0
lwrist 4.76021 0 0
lhand -14.2121 -25.4718 0.0481926
lfingers 7.12502 -0 0
lthumb 11.9227 4.1349 0.0388983
rclavicle 7.59943e-15 -1.0024e-14 -2.23353e-31
rhumerus -48.3511 8.60018 -86.8942
rradius 35.4593 -0 0
rwrist -18.0267 0 0
rhand -29.9884 -24.8219 -0.0714589
rfingers 7.12502 -0 0
rthumb -3.30619 -54.7651 -0.0694187
